<svg width="30" height="31" viewBox="0 0 30 31" fill="none" xmlns="http://www.w3.org/2000/svg">
<path d="M26.25 12.5179H3.75M20 2.51794V7.51794M10 2.51794V7.51794M9.75 27.5179H20.25C22.3502 27.5179 23.4003 27.5179 24.2025 27.1092C24.9081 26.7497 25.4817 26.176 25.8413 25.4704C26.25 24.6682 26.25 23.6181 26.25 21.5179V11.0179C26.25 8.91775 26.25 7.86765 25.8413 7.06548C25.4817 6.35987 24.9081 5.78619 24.2025 5.42667C23.4003 5.01794 22.3502 5.01794 20.25 5.01794H9.75C7.6498 5.01794 6.5997 5.01794 5.79754 5.42667C5.09193 5.78619 4.51825 6.35987 4.15873 7.06548C3.75 7.86765 3.75 8.91775 3.75 11.0179V21.5179C3.75 23.6181 3.75 24.6682 4.15873 25.4704C4.51825 26.176 5.09193 26.7497 5.79754 27.1092C6.5997 27.5179 7.6498 27.5179 9.75 27.5179Z" stroke="#1FACFE" stroke-width="2" stroke-linecap="round" stroke-linejoin="round"/>
</svg>
