<svg width="30" height="31" viewBox="0 0 30 31" fill="none" xmlns="http://www.w3.org/2000/svg">
<path d="M11.25 14.3929L13.75 16.8929L19.375 11.2679M25 15.0179C25 21.1535 18.3075 25.6159 15.8725 27.0365C15.5957 27.1979 15.4574 27.2787 15.2621 27.3206C15.1106 27.3531 14.8894 27.3531 14.7379 27.3206C14.5426 27.2787 14.4043 27.1979 14.1275 27.0365C11.6925 25.6159 5 21.1535 5 15.0179V9.03991C5 8.04052 5 7.54082 5.16345 7.11128C5.30784 6.73183 5.54248 6.39325 5.84707 6.12482C6.19187 5.82095 6.65975 5.6455 7.59551 5.29459L14.2978 2.78125C14.5576 2.6838 14.6876 2.63507 14.8212 2.61575C14.9398 2.59862 15.0602 2.59862 15.1788 2.61575C15.3124 2.63507 15.4424 2.6838 15.7022 2.78125L22.4045 5.29459C23.3403 5.6455 23.8081 5.82095 24.1529 6.12482C24.4575 6.39325 24.6922 6.73183 24.8365 7.11128C25 7.54082 25 8.04052 25 9.03991V15.0179Z" stroke="#1FACFE" stroke-width="2" stroke-linecap="round" stroke-linejoin="round"/>
</svg>
