<svg width="30" height="31" viewBox="0 0 30 31" fill="none" xmlns="http://www.w3.org/2000/svg">
<path d="M5.625 27.5179V21.2679M5.625 8.76794V2.51794M2.5 5.64294H8.75M2.5 24.3929H8.75M16.25 3.76794L14.0823 9.40402C13.7298 10.3206 13.5535 10.7788 13.2794 11.1643C13.0365 11.5059 12.738 11.8044 12.3964 12.0474C12.0109 12.3215 11.5526 12.4977 10.6361 12.8502L5 15.0179L10.6361 17.1857C11.5526 17.5382 12.0109 17.7144 12.3964 17.9885C12.738 18.2315 13.0365 18.5299 13.2794 18.8716C13.5535 19.2571 13.7298 19.7153 14.0823 20.6319L16.25 26.2679L18.4177 20.6319C18.7702 19.7153 18.9465 19.2571 19.2206 18.8716C19.4635 18.5299 19.762 18.2315 20.1036 17.9885C20.4891 17.7144 20.9474 17.5382 21.8639 17.1857L27.5 15.0179L21.8639 12.8502C20.9474 12.4977 20.4891 12.3215 20.1036 12.0474C19.762 11.8044 19.4635 11.5059 19.2206 11.1643C18.9465 10.7788 18.7702 10.3206 18.4177 9.40402L16.25 3.76794Z" stroke="#1FACFE" stroke-width="2" stroke-linecap="round" stroke-linejoin="round"/>
</svg>
