<svg width="128" height="60" viewBox="0 0 128 60" fill="none" xmlns="http://www.w3.org/2000/svg">
<path d="M0 37.7207V16H3.56413V37.7207H0Z" fill="black"/>
<path d="M8.87134 27.7913H16.3263C15.7026 26.2708 14.366 25.402 12.584 25.402C10.8316 25.402 9.49506 26.2708 8.87134 27.7913ZM12.584 34.5867C14.069 34.5867 15.2274 33.9972 15.9402 32.9111H19.831C18.8509 36.0451 16.2075 38 12.6137 38C8.01001 38 4.9211 34.7729 4.9211 29.9633C4.9211 25.1848 8.01001 21.9887 12.6137 21.9887C17.2173 21.9887 20.2766 25.1848 20.2766 29.9633C20.2766 30.3977 20.2468 30.8011 20.2171 31.2045H8.60403C8.99014 33.3456 10.4752 34.5867 12.584 34.5867Z" fill="black"/>
<path d="M29.1451 21.9887C33.7488 21.9887 36.8377 25.2158 36.8377 30.0254V37.7207H33.2736V36.2313C32.5607 37.1932 31.046 38 28.8778 38C24.5711 38 21.4822 34.7729 21.4822 29.9633C21.4822 25.1848 24.5711 21.9887 29.1451 21.9887ZM33.2736 29.9944C33.2736 27.1086 31.64 25.402 29.1748 25.402C26.6799 25.402 25.0464 27.1086 25.0464 29.9944C25.0464 32.8801 26.6799 34.5867 29.1748 34.5867C31.64 34.5867 33.2736 32.8801 33.2736 29.9944Z" fill="black"/>
<path d="M41.9618 26.3949C41.9618 28.6601 50.0405 27.2327 50.0405 33.0353C50.0405 36.2003 47.6347 37.9069 44.2488 37.9069C41.1005 37.9069 39.0808 36.4175 38.1601 35.5487L40.0609 32.6319C41.3084 33.8731 42.8825 34.4937 44.3379 34.4937C45.5556 34.4937 46.4764 34.0592 46.4764 33.1594C46.4764 30.4908 38.3977 32.1354 38.3977 26.457C38.3977 23.6023 40.4471 21.9577 43.8033 21.9577C46.7437 21.9577 48.6743 23.1989 49.9811 24.3159L48.0802 27.2017C46.5061 25.8364 44.9616 25.3709 43.7439 25.3709C42.5855 25.3709 41.9618 25.7743 41.9618 26.3949Z" fill="black"/>
<path d="M54.9022 27.7913H62.3572C61.7334 26.2708 60.3969 25.402 58.6148 25.402C56.8625 25.402 55.5259 26.2708 54.9022 27.7913ZM58.6148 34.5867C60.0999 34.5867 61.2582 33.9972 61.971 32.9111H65.8619C64.8818 36.0451 62.2384 38 58.6445 38C54.0409 38 50.952 34.7729 50.952 29.9633C50.952 25.1848 54.0409 21.9887 58.6445 21.9887C63.2482 21.9887 66.3074 25.1848 66.3074 29.9633C66.3074 30.3977 66.2777 30.8011 66.248 31.2045H54.6349C55.021 33.3456 56.5061 34.5867 58.6148 34.5867Z" fill="black"/>
<path d="M75.1532 34.5247V37.9379C70.2822 37.9379 67.6982 35.3625 67.6982 30.5839V16H71.2624V22.2059H74.6483V25.6192H71.2624V30.5529C71.2624 33.3766 72.3613 34.5247 75.1532 34.5247Z" fill="black"/>
<path d="M75.6642 29.9633C75.6642 25.1848 78.7531 21.9887 83.3567 21.9887C87.9604 21.9887 91.0196 25.1848 91.0196 29.9633C91.0196 34.7729 87.9604 38 83.3567 38C78.7531 38 75.6642 34.7729 75.6642 29.9633ZM79.2283 29.9944C79.2283 32.8801 80.8619 34.5867 83.327 34.5867C85.8219 34.5867 87.4555 32.8801 87.4555 29.9944C87.4555 27.1086 85.8219 25.402 83.327 25.402C80.8619 25.402 79.2283 27.1086 79.2283 29.9944Z" fill="black"/>
<path d="M96.1461 37.7207L90.5326 22.2059H94.364L97.9875 32.725L101.611 22.2059H105.443L104.344 25.2468L106.898 32.725L110.521 22.2059H114.353L108.739 37.7207H105.056L102.443 30.4598L99.829 37.7207H96.1461Z" fill="black"/>
<path d="M121.169 21.9267C126.069 21.9267 128 25.7743 128 28.4739V37.7207H124.436V28.567C124.436 26.3639 122.891 25.3709 121.169 25.3709C119.446 25.3709 117.902 26.3639 117.902 28.567V37.7207H114.338V28.4739C114.338 25.7743 116.268 21.9267 121.169 21.9267Z" fill="black"/>
</svg>
